<svg width="117" height="116" viewBox="0 0 117 116" fill="none" xmlns="http://www.w3.org/2000/svg">
<path d="M32.0811 63C34.6131 74.9961 45.26 84 58.0098 84C70.7595 84 81.4064 74.9961 83.9385 63H116.297C113.762 92.6917 88.8579 116 58.5098 116C28.1617 116 3.25788 92.6917 0.722656 63H32.0811Z" fill="#EF7CA2"/>
<path d="M58.5098 0C88.8579 0 113.762 23.3083 116.297 53H84.1289C81.992 40.5078 71.1114 31 58.0098 31C44.9082 31 34.0276 40.5078 31.8906 53H0.722656C3.25788 23.3083 28.1617 0 58.5098 0Z" fill="#EF7CA2"/>
<path d="M73.5098 57.5C73.5098 66.0604 66.5702 73 58.0098 73C49.4494 73 42.5098 66.0604 42.5098 57.5C42.5098 48.9396 49.4494 42 58.0098 42C66.5702 42 73.5098 48.9396 73.5098 57.5Z" fill="#EF7CA2"/>
</svg>
