<svg width="116" height="116" viewBox="0 0 116 116" fill="none" xmlns="http://www.w3.org/2000/svg">
<path d="M31.3584 63C33.8904 74.9961 44.5374 84 57.2871 84C70.0368 84 80.6838 74.9961 83.2158 63H115.574C113.039 92.6917 88.1352 116 57.7871 116C27.439 116 2.53523 92.6917 0 63H31.3584Z" fill="#8D72D7"/>
<path d="M57.7871 0C88.1352 0 113.039 23.3083 115.574 53H83.4062C81.2693 40.5078 70.3887 31 57.2871 31C44.1855 31 33.3049 40.5078 31.168 53H0C2.53523 23.3083 27.439 0 57.7871 0Z" fill="#8D72D7"/>
<path d="M72.7871 57.5C72.7871 66.0604 65.8475 73 57.2871 73C48.7267 73 41.7871 66.0604 41.7871 57.5C41.7871 48.9396 48.7267 42 57.2871 42C65.8475 42 72.7871 48.9396 72.7871 57.5Z" fill="#8D72D7"/>
</svg>
