<svg width="117" height="116" viewBox="0 0 117 116" fill="none" xmlns="http://www.w3.org/2000/svg">
<path d="M31.9326 63C34.4647 74.9961 45.1116 84 57.8613 84C70.611 84 81.258 74.9961 83.79 63H116.148C113.613 92.6917 88.7094 116 58.3613 116C28.0132 116 3.10945 92.6917 0.574219 63H31.9326Z" fill="#962823"/>
<path d="M58.3613 0C88.7094 0 113.613 23.3083 116.148 53H83.9805C81.8435 40.5078 70.9629 31 57.8613 31C44.7597 31 33.8791 40.5078 31.7422 53H0.574219C3.10945 23.3083 28.0132 0 58.3613 0Z" fill="#962823"/>
<path d="M73.3613 57.5C73.3613 66.0604 66.4217 73 57.8613 73C49.3009 73 42.3613 66.0604 42.3613 57.5C42.3613 48.9396 49.3009 42 57.8613 42C66.4217 42 73.3613 48.9396 73.3613 57.5Z" fill="#962823"/>
</svg>
