<svg width="116" height="116" viewBox="0 0 116 116" fill="none" xmlns="http://www.w3.org/2000/svg">
<path d="M31.5068 63C34.0389 74.9961 44.6858 84 57.4355 84C70.1853 84 80.8322 74.9961 83.3643 63H115.723C113.187 92.6917 88.2836 116 57.9355 116C27.5874 116 2.68366 92.6917 0.148438 63H31.5068Z" fill="#236395"/>
<path d="M57.9355 0C88.2836 0 113.187 23.3083 115.723 53H83.5547C81.4177 40.5078 70.5371 31 57.4355 31C44.334 31 33.4533 40.5078 31.3164 53H0.148438C2.68366 23.3083 27.5874 0 57.9355 0Z" fill="#236395"/>
<path d="M72.9355 57.5C72.9355 66.0604 65.996 73 57.4355 73C48.8751 73 41.9355 66.0604 41.9355 57.5C41.9355 48.9396 48.8751 42 57.4355 42C65.996 42 72.9355 48.9396 72.9355 57.5Z" fill="#236395"/>
</svg>
